{
  "accessors": [
    {
      "bufferView": 2,
      "componentType": 5126,
      "count": 120,
      "max": [
        27.516407012939453,
        11.847319602966309,
        -47.599815368652344
      ],
      "min": [
        22.498065948486328,
        6.941070556640625,
        -53.75594711303711
      ],
      "type": "VEC3"
    },
    {
      "bufferView": 2,
      "byteOffset": 1440,
      "componentType": 5126,
      "count": 120,
      "max": [
        0.9964156746864319,
        0.9742384552955627,
        0.8948895931243896
      ],
      "min": [
        -0.9964984059333801,
        -0.9741599559783936,
        -0.7348648905754089
      ],
      "type": "VEC3"
    },
    {
      "bufferView": 3,
      "componentType": 5126,
      "count": 120,
      "max": [
        0.8943215012550354,
        0.8921191692352295,
        0.9963272213935852,
        1.0
      ],
      "min": [
        -0.8814230561256409,
        -0.8997795581817627,
        -0.6164311170578003,
        1.0
      ],
      "type": "VEC4"
    },
    {
      "bufferView": 1,
      "componentType": 5126,
      "count": 120,
      "max": [
        0.5157169103622437,
        0.5861223340034485
      ],
      "min": [
        0.4112303555011749,
        0.4177064299583435
      ],
      "type": "VEC2"
    },
    {
      "bufferView": 1,
      "byteOffset": 960,
      "componentType": 5126,
      "count": 120,
      "max": [
        0.5157169103622437,
        0.5861223340034485
      ],
      "min": [
        0.4112303555011749,
        0.4177064299583435
      ],
      "type": "VEC2"
    },
    {
      "bufferView": 0,
      "componentType": 5125,
      "count": 504,
      "type": "SCALAR"
    },
    {
      "bufferView": 2,
      "byteOffset": 2880,
      "componentType": 5126,
      "count": 5370,
      "max": [
        51.48651885986328,
        39.608184814453125,
        58.692745208740234
      ],
      "min": [
        -51.486515045166016,
        -39.608184814453125,
        -58.69274139404297
      ],
      "type": "VEC3"
    },
    {
      "bufferView": 2,
      "byteOffset": 67320,
      "componentType": 5126,
      "count": 5370,
      "max": [
        1.0,
        1.0,
        1.0
      ],
      "min": [
        -1.0,
        -1.0,
        -1.0
      ],
      "type": "VEC3"
    },
    {
      "bufferView": 3,
      "byteOffset": 1920,
      "componentType": 5126,
      "count": 5370,
      "max": [
        1.0,
        0.9999785423278809,
        0.9999374747276306,
        1.0
      ],
      "min": [
        -0.999915599822998,
        -0.999982476234436,
        -1.0,
        -1.0
      ],
      "type": "VEC4"
    },
    {
      "bufferView": 1,
      "byteOffset": 1920,
      "componentType": 5126,
      "count": 5370,
      "max": [
        0.9967023134231567,
        0.9936221837997437
      ],
      "min": [
        0.005125038325786591,
        0.0028046579100191593
      ],
      "type": "VEC2"
    },
    {
      "bufferView": 0,
      "byteOffset": 2016,
      "componentType": 5125,
      "count": 22416,
      "type": "SCALAR"
    }
  ],
  "asset": {
    "extras": {
      "author": "Partho Borthakur (https://sketchfab.com/parthoborthakur)",
      "license": "CC-BY-4.0 (http://creativecommons.org/licenses/by/4.0/)",
      "source": "https://sketchfab.com/3d-models/random-scene-98d500e09fdb49ea9d6e969572d34f45",
      "title": "Random Scene"
    },
    "generator": "Sketchfab-12.68.0",
    "version": "2.0"
  },
  "bufferViews": [
    {
      "buffer": 0,
      "byteLength": 91680,
      "name": "floatBufferViews",
      "target": 34963
    },
    {
      "buffer": 0,
      "byteLength": 44880,
      "byteOffset": 91680,
      "byteStride": 8,
      "name": "floatBufferViews",
      "target": 34962
    },
    {
      "buffer": 0,
      "byteLength": 131760,
      "byteOffset": 136560,
      "byteStride": 12,
      "name": "floatBufferViews",
      "target": 34962
    },
    {
      "buffer": 0,
      "byteLength": 87840,
      "byteOffset": 268320,
      "byteStride": 16,
      "name": "floatBufferViews",
      "target": 34962
    }
  ],
  "buffers": [
    {
      "byteLength": 356160,
      "uri": "scene.bin"
    }
  ],
  "images": [
    {
      "uri": "textures/Rocksalt_TeaStall_test_Glass_baseColor.png"
    },
    {
      "uri": "textures/Rocksalt_TeaStall_test_Glass_normal.png"
    }
  ],
  "materials": [
    {
      "alphaMode": "BLEND",
      "name": "Rocksalt_TeaStall_test_Glass",
      "normalTexture": {
        "index": 1
      },
      "pbrMetallicRoughness": {
        "baseColorFactor": [
          1.0,
          1.0,
          1.0,
          0.58
        ],
        "baseColorTexture": {
          "index": 0
        },
        "metallicFactor": 0.0,
        "roughnessFactor": 0.6
      }
    },
    {
      "name": "Rocksalt_TeaStall_test_DirectX_Shader",
      "normalTexture": {
        "index": 3
      },
      "pbrMetallicRoughness": {
        "baseColorTexture": {
          "index": 2
        },
        "metallicFactor": 0.0,
        "roughnessFactor": 0.6
      }
    }
  ],
  "meshes": [
    {
      "name": "Glass_Rocksalt_TeaStall_test_Rocksalt_TeaStall_test_Glass_0",
      "primitives": [
        {
          "attributes": {
            "NORMAL": 1,
            "POSITION": 0,
            "TANGENT": 2,
            "TEXCOORD_0": 3,
            "TEXCOORD_1": 4
          },
          "indices": 5,
          "material": 0,
          "mode": 4
        }
      ]
    },
    {
      "name": "Rocksalt_TeaStall_test_Rocksalt_TeaStall_test_DirectX Shader_0",
      "primitives": [
        {
          "attributes": {
            "NORMAL": 7,
            "POSITION": 6,
            "TANGENT": 8,
            "TEXCOORD_0": 9
          },
          "indices": 10,
          "material": 1,
          "mode": 4
        }
      ]
    }
  ],
  "nodes": [
    {
      "children": [
        1
      ],
      "matrix": [
        1.0,
        0.0,
        0.0,
        0.0,
        0.0,
        2.220446049250313e-16,
        -1.0,
        0.0,
        0.0,
        1.0,
        2.220446049250313e-16,
        0.0,
        0.0,
        0.0,
        0.0,
        1.0
      ],
      "name": "Sketchfab_model"
    },
    {
      "children": [
        2
      ],
      "matrix": [
        1.0,
        0.0,
        0.0,
        0.0,
        0.0,
        0.0,
        1.0,
        0.0,
        0.0,
        -1.0,
        0.0,
        0.0,
        0.0,
        0.0,
        0.0,
        1.0
      ],
      "name": "b55d8fa8576a431a81148b4165dc4513.fbx"
    },
    {
      "children": [
        3
      ],
      "name": "Object_2"
    },
    {
      "children": [
        4
      ],
      "name": "RootNode"
    },
    {
      "children": [
        5,
        8
      ],
      "name": "Rocksalt_TeaStall_test",
      "rotation": [
        2.1855694143368964e-08,
        0.0,
        0.0,
        1.0
      ],
      "translation": [
        2.4785232543945313,
        57.554344177246094,
        7.134674072265625
      ]
    },
    {
      "children": [
        6
      ],
      "name": "Glass_Rocksalt_TeaStall_test",
      "rotation": [
        -0.7071068286895752,
        0.0,
        0.0,
        0.7071068286895752
      ],
      "translation": [
        25.007234573364258,
        -50.677879333496094,
        -9.394195556640625
      ]
    },
    {
      "children": [
        7
      ],
      "matrix": [
        1.0,
        0.0,
        -0.0,
        0.0,
        0.0,
        1.0,
        0.0,
        0.0,
        0.0,
        0.0,
        1.0,
        0.0,
        -25.00723648071289,
        -9.394195556640625,
        50.677879333496094,
        1.0
      ],
      "name": "Object_6"
    },
    {
      "mesh": 0,
      "name": "Glass_Rocksalt_TeaStall_test_Rocksalt_TeaStall_test_Glass_0"
    },
    {
      "children": [
        9
      ],
      "name": "Rocksalt_TeaStall_test",
      "rotation": [
        -0.7071068286895752,
        0.0,
        0.0,
        0.7071068286895752
      ],
      "translation": [
        -1.9073486328125e-06,
        0.0,
        0.0
      ]
    },
    {
      "mesh": 1,
      "name": "Rocksalt_TeaStall_test_Rocksalt_TeaStall_test_DirectX Shader_0"
    }
  ],
  "samplers": [
    {
      "magFilter": 9729,
      "minFilter": 9987,
      "wrapS": 33071,
      "wrapT": 33071
    },
    {
      "magFilter": 9729,
      "minFilter": 9987,
      "wrapS": 10497,
      "wrapT": 10497
    },
    {
      "magFilter": 9728,
      "minFilter": 9728,
      "wrapS": 33071,
      "wrapT": 33071
    }
  ],
  "scene": 0,
  "scenes": [
    {
      "name": "Sketchfab_Scene",
      "nodes": [
        0
      ]
    }
  ],
  "textures": [
    {
      "sampler": 0,
      "source": 0
    },
    {
      "sampler": 0,
      "source": 1
    },
    {
      "sampler": 1,
      "source": 0
    },
    {
      "sampler": 2,
      "source": 1
    }
  ]
}
